<svg xmlns="http://www.w3.org/2000/svg" viewBox="0 0 1920 1080" width="1920" height="1080">
<defs>
<linearGradient id="L" x1="0" y1="0" x2="1" y2="1"><stop offset="0" stop-color="#16224d"></stop><stop offset="0.6" stop-color="#0A1230"></stop><stop offset="1" stop-color="#02060F"></stop></linearGradient>
<linearGradient id="R" x1="0" y1="0" x2="1" y2="1"><stop offset="0" stop-color="#3a4f7d"></stop><stop offset="0.55" stop-color="#27375f"></stop><stop offset="1" stop-color="#1a2545"></stop></linearGradient>
<clipPath id="cl"><polygon points="0,0 998,0 1067,104 967,208 1036,312 936,416 1005,520 906,624 974,728 875,832 943,936 844,1040 922,1080 0,1080"></polygon></clipPath>
<clipPath id="cr"><polygon points="1920,0 998,0 1067,104 967,208 1036,312 936,416 1005,520 906,624 974,728 875,832 943,936 844,1040 922,1080 1920,1080"></polygon></clipPath>
</defs>
<polygon points="0,0 998,0 1067,104 967,208 1036,312 936,416 1005,520 906,624 974,728 875,832 943,936 844,1040 922,1080 0,1080" fill="url(#L)"></polygon>
<polygon points="1920,0 998,0 1067,104 967,208 1036,312 936,416 1005,520 906,624 974,728 875,832 943,936 844,1040 922,1080 1920,1080" fill="url(#R)"></polygon>
<g clip-path="url(#cl)"><polygon points="-166,-60 -74,60 -62,180 31,300 43,420 135,540 147,660 239,780 252,900 344,1020 356,1140 506,1140 494,1020 402,900 389,780 297,660 285,540 193,420 181,300 88,180 76,60 -16,-60" fill="#000" fill-opacity="0.16"></polygon><polygon points="94,-60 186,60 198,180 291,300 303,420 395,540 407,660 499,780 512,900 604,1020 616,1140 766,1140 754,1020 662,900 649,780 557,660 545,540 453,420 441,300 348,180 336,60 244,-60" fill="#000" fill-opacity="0.16"></polygon><polygon points="334,-60 426,60 438,180 531,300 543,420 635,540 647,660 739,780 752,900 844,1020 856,1140 1006,1140 994,1020 902,900 889,780 797,660 785,540 693,420 681,300 588,180 576,60 484,-60" fill="#000" fill-opacity="0.16"></polygon></g>
<g clip-path="url(#cr)"><polygon points="1134,-60 1226,60 1238,180 1331,300 1343,420 1435,540 1447,660 1539,780 1552,900 1644,1020 1656,1140 1826,1140 1814,1020 1722,900 1709,780 1617,660 1605,540 1513,420 1501,300 1408,180 1396,60 1304,-60" fill="#fff" fill-opacity="0.07"></polygon><polygon points="1394,-60 1486,60 1498,180 1591,300 1603,420 1695,540 1707,660 1799,780 1812,900 1904,1020 1916,1140 2086,1140 2074,1020 1982,900 1969,780 1877,660 1865,540 1773,420 1761,300 1668,180 1656,60 1564,-60" fill="#fff" fill-opacity="0.07"></polygon><polygon points="1634,-60 1726,60 1738,180 1831,300 1843,420 1935,540 1947,660 2039,780 2052,900 2144,1020 2156,1140 2326,1140 2314,1020 2222,900 2209,780 2117,660 2105,540 2013,420 2001,300 1908,180 1896,60 1804,-60" fill="#fff" fill-opacity="0.07"></polygon></g>
<polyline points="998,0 1067,104 967,208 1036,312 936,416 1005,520 906,624 974,728 875,832 943,936 844,1040 922,1080" fill="none" stroke="#B8923A" stroke-width="6" stroke-opacity="0.9" stroke-linejoin="round"></polyline>
<polyline points="998,0 1067,104 967,208 1036,312 936,416 1005,520 906,624 974,728 875,832 943,936 844,1040 922,1080" fill="none" stroke="#F3CF6B" stroke-width="2" stroke-opacity="0.9" stroke-linejoin="round"></polyline>
</svg>
